<svg width="578" height="152" viewBox="0 0 578 152" fill="none" xmlns="http://www.w3.org/2000/svg">
<path clipPath="evenodd" clipRule="evenodd" d="M7.33662 148C4.80473 148 3.41142 145.057 5.01612 143.099L27.0176 116.247C38.3429 101.814 60.9936 72.9483 83.6442 72.9483C106.295 72.9483 128.946 101.814 151.596 93.1545C174.247 84.4947 196.897 38.3091 219.548 18.1028C242.199 -2.10338 264.849 3.66982 287.5 9.44303C310.151 15.2162 332.801 20.9894 355.452 23.876C378.103 26.7627 400.753 26.7627 423.404 20.9894C446.054 15.2162 468.705 3.66983 491.356 18.1028C514.006 32.5359 536.657 72.9483 547.982 93.1545L573.322 146.571C573.637 147.235 573.153 148 572.419 148H559.308H547.982C536.657 148 514.006 148 491.356 148C468.705 148 446.054 148 423.404 148C400.753 148 378.103 148 355.452 148C332.801 148 310.151 148 287.5 148C264.849 148 242.199 148 219.548 148C196.897 148 174.247 148 151.596 148C128.946 148 106.295 148 83.6442 148C60.9936 148 38.3429 148 27.0176 148H15.6923H7.33662Z" stroke="url(#paint0_linear_123_2502)" stroke-width="8"/>
<defs>
<linearGradient id="paint0_linear_123_2502" x1="290.584" y1="10.5" x2="287.024" y2="148.001" gradientUnits="userSpaceOnUse">
<stop stop-color="#AABDFF"/>
<stop offset="1" stop-color="#AABDFF" stop-opacity="0"/>
</linearGradient>
</defs>
</svg>
